<svg width="96" height="96" xmlns="http://www.w3.org/2000/svg" xmlns:xlink="http://www.w3.org/1999/xlink" xml:space="preserve" overflow="hidden"><g transform="translate(-273 -497)"><path d="M321 513C328.732 513 335 519.268 335 527 335 534.732 328.732 541 321 541 313.268 541 307 534.732 307 527 307.008 519.271 313.271 513.008 321 513M321 511C312.163 511 305 518.163 305 527 305 535.837 312.163 543 321 543 329.837 543 337 535.837 337 527 337 518.163 329.837 511 321 511Z" stroke="#000000" stroke-width="3"/><path d="M353 579 351 579 351 563.5C350.952 561.376 349.952 559.386 348.275 558.081 343.889 554.716 338.868 552.273 333.513 550.9 329.459 549.652 325.242 549.012 321 549 316.759 549.074 312.548 549.713 308.476 550.9 303.177 552.452 298.178 554.886 293.688 558.1 292.028 559.406 291.042 561.388 291 563.5L291 579 289 579 289 563.5C289.05 560.769 290.326 558.205 292.476 556.519 297.168 553.151 302.395 550.601 307.937 548.977 312.184 547.74 316.577 547.075 321 547 325.432 547.011 329.838 547.678 334.075 548.979 339.685 550.424 344.943 552.991 349.533 556.525 351.678 558.211 352.952 560.772 353 563.5Z" stroke="#000000" stroke-width="3"/></g></svg>