<svg width="96" height="96" xmlns="http://www.w3.org/2000/svg" xmlns:xlink="http://www.w3.org/1999/xlink" xml:space="preserve" overflow="hidden"><g transform="translate(-400 -508)"><path d="M473.044 532.861C471.026 531.987 468.857 531.515 466.659 531.472 465.804 531.446 464.95 531.557 464.13 531.801L453.089 558.743C453.9 558.504 454.744 558.396 455.589 558.422 457.797 558.466 459.974 558.94 462 559.818 468.265 562.385 472.763 568.668 481.083 568.668 481.709 568.668 482.334 568.635 482.956 568.568L494 541.608C482.742 541.092 479.763 535.614 473.044 532.861ZM469.975 561.054C469.792 560.928 469.605 560.802 469.421 560.676L472.154 554.005 471.388 553.516C469.695 552.384 467.928 551.365 466.1 550.467L463.363 557.147C463.286 557.115 463.215 557.074 463.138 557.047 461.38 556.31 459.532 555.809 457.643 555.557L460.425 548.769C462.043 548.963 463.625 549.385 465.125 550.022 465.462 550.16 465.779 550.322 466.101 550.472L468.966 543.481C468.645 543.333 468.317 543.19 467.981 543.052 466.484 542.433 464.928 541.969 463.336 541.667L466.279 534.485C466.398 534.485 466.527 534.477 466.664 534.477 468.472 534.522 470.254 534.917 471.911 535.641 471.989 535.673 472.059 535.713 472.136 535.741L468.966 543.477C471.077 544.482 473.112 545.639 475.055 546.939L478.179 539.316C480.103 540.641 482.161 541.76 484.319 542.654L481.141 550.409C479.107 549.44 477.144 548.328 475.268 547.081L475.047 546.939 472.159 554.006C474.108 555.293 476.151 556.433 478.269 557.418L475.419 564.36C473.512 563.417 471.691 562.311 469.975 561.054ZM479.241 557.826C478.908 557.689 478.604 557.541 478.286 557.397L481.147 550.441C482.839 551.207 484.607 551.792 486.422 552.187L483.535 559.234C482.073 558.865 480.638 558.395 479.241 557.826Z"/><path d="M443.079 558.743 432.039 531.8C431.219 531.556 430.365 531.445 429.51 531.471 427.312 531.514 425.143 531.986 423.125 532.86 416.405 535.613 413.425 541.091 402.169 541.607L413.216 568.565C413.838 568.632 414.463 568.665 415.088 568.665 423.408 568.665 427.907 562.382 434.172 559.815 436.198 558.935 438.375 558.46 440.583 558.415 441.427 558.391 442.27 558.502 443.079 558.743ZM412.634 559.234 409.746 552.187C411.564 551.792 413.335 551.205 415.029 550.438L417.859 557.408C417.549 557.548 417.253 557.693 416.928 557.826 415.531 558.394 414.096 558.865 412.634 559.234ZM433.034 557.042C432.957 557.074 432.886 557.115 432.81 557.142L430.072 550.462C428.243 551.36 426.475 552.379 424.78 553.511L424.014 554 426.748 560.671C426.564 560.797 426.376 560.923 426.193 561.049 424.477 562.306 422.656 563.412 420.749 564.355L417.91 557.432C420.025 556.441 422.063 555.295 424.01 554.005L421.11 546.938 420.889 547.08C419.017 548.331 417.058 549.445 415.027 550.416L411.846 542.653C414.004 541.759 416.062 540.64 417.986 539.315L421.11 546.938C423.053 545.639 425.089 544.482 427.199 543.476L424.029 535.74C424.106 535.708 424.177 535.668 424.254 535.64 425.912 534.916 427.694 534.521 429.502 534.476 429.639 534.476 429.767 534.476 429.887 534.484L432.83 541.666C431.238 541.968 429.682 542.432 428.185 543.051 427.848 543.189 427.519 543.332 427.199 543.48L430.064 550.471C430.387 550.318 430.704 550.159 431.041 550.021 432.541 549.384 434.123 548.962 435.741 548.768L438.523 555.556C436.636 555.807 434.79 556.306 433.034 557.042Z"/><path d="M450.246 557.524 461.274 530.613C461.665 529.58 461.144 528.425 460.111 528.035 459.118 527.659 458.003 528.125 457.574 529.097L448.084 552.25 438.6 529.1C438.209 528.067 437.055 527.546 436.022 527.937 434.988 528.328 434.468 529.483 434.859 530.516 434.872 530.549 434.885 530.583 434.9 530.616L445.923 557.524 435.794 582.241C435.351 583.253 435.813 584.432 436.825 584.875 437.837 585.318 439.016 584.856 439.459 583.844 439.471 583.816 439.483 583.787 439.494 583.758L448.084 562.8 456.674 583.76C457.117 584.772 458.296 585.233 459.308 584.791 460.287 584.362 460.756 583.241 460.374 582.243Z"/></g></svg>