<svg width="96" height="96" xmlns="http://www.w3.org/2000/svg" xmlns:xlink="http://www.w3.org/1999/xlink" xml:space="preserve" overflow="hidden"><g transform="translate(-655 -494)"><path d="M706 538 727 538C728.7 538 730 536.7 730 535 730 533.3 728.7 532 727 532L681 532C679.3 532 678 533.3 678 535 678 536.7 679.3 538 681 538L700 538 700 563 694 563 694 569 712 569 712 563 706 563 706 538Z"/><path d="M690.1 546 671.7 546 669 518.7 669 518.7C668.8 517.2 667.6 516 666 516 664.3 516 663 517.3 663 519 663 519.1 663 519.2 663 519.3L663 519.3 666 548.9 663.1 569 669.2 569 670.2 562 684 562 684 569 690 569 690 552 690.1 552C691.8 552 693.1 550.7 693.1 549 693.1 547.3 691.7 546 690.1 546ZM684 558 670.7 558 671.6 552 684 552 684 558Z"/><path d="M743 519.3C743 519.2 743 519.1 743 519 743 517.3 741.7 516 740 516 738.5 516 737.2 517.2 737 518.7L737 518.7 734.3 546 715.9 546C714.2 546 712.9 547.3 712.9 549 712.9 550.7 714.2 552 715.9 552L716 552 716 569 722 569 722 562 735.8 562 736.8 569 742.9 569 740 548.9 743 519.3 743 519.3ZM722 558 722 552 734.4 552 735.3 558 722 558Z"/></g></svg>