<svg width="96" height="96" xmlns="http://www.w3.org/2000/svg" xmlns:xlink="http://www.w3.org/1999/xlink" xml:space="preserve" overflow="hidden"><g transform="translate(-786 -523)"><path d="M834 603C816.4 603 802 588.6 802 571 802 553.4 816.4 539 834 539 851.6 539 866 553.4 866 571 866 588.6 851.6 603 834 603ZM834 533C813 533 796 550 796 571 796 592 813 609 834 609 855 609 872 592 872 571 872 550 855 533 834 533Z"/><path d="M836 551 832 551 832 571C832 571.6 832.2 572.1 832.6 572.4L846.7 586.5 849.5 583.7 836 570.2 836 551Z"/><path d="M836 545C836 546.105 835.105 547 834 547 832.895 547 832 546.105 832 545 832 543.895 832.895 543 834 543 835.105 543 836 543.895 836 545Z"/><path d="M836 597C836 598.105 835.105 599 834 599 832.895 599 832 598.105 832 597 832 595.895 832.895 595 834 595 835.105 595 836 595.895 836 597Z"/><path d="M810 571C810 572.105 809.105 573 808 573 806.895 573 806 572.105 806 571 806 569.895 806.895 569 808 569 809.105 569 810 569.895 810 571Z"/><path d="M862 571C862 572.105 861.105 573 860 573 858.895 573 858 572.105 858 571 858 569.895 858.895 569 860 569 861.105 569 862 569.895 862 571Z"/></g></svg>