<svg width="96" height="96" xmlns="http://www.w3.org/2000/svg" xmlns:xlink="http://www.w3.org/1999/xlink" xml:space="preserve" overflow="hidden"><g transform="translate(-378 -319)"><path d="M454 351 454 359 446 359 446 351 454 351ZM398 387 406 387 406 395 398 395 398 387ZM418 351 418 359 410 359 410 351 418 351ZM430 351 430 359 422 359 422 351 430 351ZM442 371 434 371 434 363 442 363 442 371ZM446 371 446 363 454 363 454 371 446 371ZM446 383 446 375 454 375 454 383 446 383ZM422 387 430 387 430 395 422 395 422 387ZM418 387 418 395 410 395 410 387 418 387ZM410 375 418 375 418 383 410 383 410 375ZM406 375 406 383 398 383 398 375 406 375ZM406 363 406 371 398 371 398 363 406 363ZM418 371 410 371 410 363 418 363 418 371ZM422 371 422 363 430 363 430 371 422 371ZM430 383 422 383 422 375 430 375 430 383ZM434 383 434 375 442 375 442 383 434 383ZM442 351 442 359 434 359 434 351 442 351ZM392 345 392 401 460 401 460 345 392 345Z"/><path d="M392 333 460 333 460 341 392 341Z"/></g></svg>