<svg width="96" height="96" xmlns="http://www.w3.org/2000/svg" xmlns:xlink="http://www.w3.org/1999/xlink" xml:space="preserve" overflow="hidden"><g transform="translate(-551 -491)"><path d="M624 573 574 573 574 511 585 511 585 517 613 517 613 511 624 511ZM599 503C600.657 503 602 504.343 602 506 602 507.657 600.657 509 599 509 597.343 509 596 507.657 596 506 595.973 504.37 597.272 503.027 598.901 503 598.934 502.999 598.967 502.999 599 503ZM626 505 609 505 609 503C609 500.791 607.209 499 605 499L593 499C590.791 499 589 500.791 589 503L589 505 572 505C569.791 505 568 506.791 568 509L568 575C568 577.209 569.791 579 572 579L626 579C628.209 579 630 577.209 630 575L630 509C630 506.791 628.209 505 626 505Z"/><path d="M601 525 618 525 618 529 601 529Z"/><path d="M601 537 618 537 618 541 601 541Z"/><path d="M601 549 618 549 618 553 601 553Z"/><path d="M601 561 618 561 618 565 601 565Z"/><path d="M580.707 526.8 582.8 524.707 585.4 527.307 592 520.707 594.093 522.8 585.4 531.493 580.707 526.8Z"/><path d="M580.707 538.8 582.8 536.707 585.4 539.307 592 532.707 594.093 534.8 585.4 543.493 580.707 538.8Z"/><path d="M580.707 550.8 582.8 548.707 585.4 551.307 592 544.707 594.093 546.8 585.4 555.493 580.707 550.8Z"/><path d="M580.707 562.8 582.8 560.707 585.4 563.307 592 556.707 594.093 558.8 585.4 567.493 580.707 562.8Z"/></g></svg>